<?xml version="1.0" standalone="no"?>
<!DOCTYPE svg PUBLIC "-//W3C//DTD SVG 20010904//EN"
 "http://www.w3.org/TR/2001/REC-SVG-20010904/DTD/svg10.dtd">
<svg version="1.0" xmlns="http://www.w3.org/2000/svg"
 width="3840.000000pt" height="2160.000000pt" viewBox="0 0 3840.000000 2160.000000"
 preserveAspectRatio="xMidYMid meet">
<metadata>
Created by potrace 1.16, written by Peter Selinger 2001-2019
</metadata>
<g transform="translate(0.000000,2160.000000) scale(0.100000,-0.100000)"
fill="#000000" stroke="none">
<path d="M28175 21239 c-1036 -49 -1996 -574 -2603 -1422 -344 -481 -551
-1031 -613 -1632 -15 -146 -15 -490 0 -640 81 -802 419 -1515 985 -2080 540
-539 1199 -863 1976 -972 178 -25 684 -25 855 0 777 114 1404 417 1944 942
505 492 839 1109 970 1797 26 134 51 335 51 405 0 29 5 53 10 53 6 0 10 65 10
175 0 110 -4 175 -10 175 -5 0 -10 21 -10 48 0 123 -45 408 -95 604 -152 595
-452 1118 -894 1558 -388 386 -825 654 -1346 825 -272 90 -578 149 -830 160
-66 3 -149 7 -185 9 -36 1 -132 -1 -215 -5z m340 -1569 c560 -53 1053 -345
1370 -810 68 -100 173 -311 211 -425 174 -525 97 -1114 -206 -1575 -87 -131
-159 -218 -282 -335 -276 -265 -628 -436 -1009 -490 -133 -19 -375 -19 -508 0
-606 86 -1121 456 -1396 1003 -250 497 -254 1092 -10 1597 332 689 1070 1107
1830 1035z"/>
<path d="M6653 19293 c3 -1720 3 -1740 25 -1933 98 -861 294 -1542 638 -2220
758 -1495 2104 -2465 3772 -2716 l112 -17 0 -2286 c0 -2273 3 -2499 35 -2831
131 -1340 639 -2579 1496 -3650 325 -407 724 -809 1144 -1153 1412 -1158 3301
-1892 5360 -2081 704 -65 1511 -65 2200 0 2984 281 5429 1691 6742 3887 111
187 295 541 381 737 319 723 512 1487 582 2295 26 301 30 656 30 2823 l0 2282
-880 0 -880 0 0 -2362 c0 -1460 -4 -2418 -10 -2508 -71 -1034 -374 -1949 -917
-2774 -938 -1422 -2562 -2399 -4538 -2731 -1105 -186 -2306 -175 -3424 30
-648 119 -1319 324 -1891 578 -1059 471 -1951 1162 -2580 2002 -642 858 -1003
1835 -1080 2925 -6 92 -10 1003 -10 2492 l0 2348 23 5 c12 2 51 9 87 15 581
97 1182 315 1645 595 572 346 1187 912 1618 1490 596 798 1004 1773 1141 2730
52 355 49 263 53 2073 l4 1692 -1891 0 -1890 0 0 -780 0 -780 1105 0 1105 0 0
-732 c0 -767 -6 -956 -41 -1228 -175 -1395 -974 -2573 -2149 -3169 -533 -271
-1070 -403 -1695 -418 -544 -13 -1039 71 -1500 254 -1380 548 -2264 1891
-2375 3608 -5 88 -10 503 -10 922 l0 763 1115 0 1115 0 0 780 0 780 -1885 0
-1886 0 4 -1737z"/>
</g>
</svg>
