<?xml version="1.0" standalone="no"?>
<!DOCTYPE svg PUBLIC "-//W3C//DTD SVG 20010904//EN"
 "http://www.w3.org/TR/2001/REC-SVG-20010904/DTD/svg10.dtd">
<svg version="1.0" xmlns="http://www.w3.org/2000/svg"
 width="3000.000000pt" height="752.000000pt" viewBox="0 0 3000.000000 752.000000"
 preserveAspectRatio="xMidYMid meet">
<metadata>
Created by potrace 1.16, written by Peter Selinger 2001-2019
</metadata>
<g transform="translate(0.000000,752.000000) scale(0.100000,-0.100000)"
fill="#000000" stroke="none">
<path d="M5655 6443 c-312 -66 -576 -314 -666 -625 -30 -105 -37 -306 -15
-419 33 -163 111 -311 230 -436 178 -188 384 -276 641 -276 240 1 434 77 602
237 93 87 151 168 202 278 63 135 76 200 76 378 -1 175 -11 227 -76 368 -117
255 -350 441 -621 496 -96 20 -279 20 -373 -1z m378 -466 c289 -137 351 -496
124 -721 -174 -174 -434 -182 -610 -18 -156 147 -195 341 -106 530 52 108 156
196 284 239 25 8 76 12 135 10 86 -2 103 -6 173 -40z"/>
<path d="M280 6016 c0 -551 17 -717 95 -953 115 -344 356 -629 663 -782 85
-43 250 -97 340 -113 l72 -12 0 -631 c0 -681 4 -744 55 -945 118 -465 431
-873 885 -1153 258 -159 607 -282 955 -338 167 -27 567 -37 741 -19 1091 110
1856 781 1974 1730 6 51 10 344 10 742 l0 658 -239 0 -240 0 -3 -672 c-4 -650
-5 -677 -26 -780 -101 -482 -388 -841 -847 -1059 -293 -138 -602 -196 -994
-186 -549 14 -1005 186 -1343 506 -219 208 -369 483 -424 781 -15 83 -18 177
-22 732 l-3 637 28 7 c138 30 234 62 328 109 361 178 664 564 769 982 42 166
46 233 46 704 l0 449 -500 0 -500 0 0 -220 0 -220 280 0 280 0 0 -218 c0 -156
-5 -246 -16 -313 -65 -376 -307 -678 -642 -799 -290 -105 -631 -64 -865 104
-133 95 -258 252 -322 405 -76 181 -95 297 -95 592 l0 229 285 0 285 0 0 220
0 220 -505 0 -505 0 0 -394z"/>
<path d="M8350 3805 l0 -2125 245 0 245 0 0 964 c0 817 2 977 15 1051 55 316
272 555 575 636 117 32 319 32 433 1 215 -59 386 -216 461 -424 62 -171 59
-120 63 -1220 l4 -1008 240 0 240 0 -4 1093 c-3 1068 -3 1094 -24 1182 -111
477 -404 761 -867 841 -139 25 -388 15 -521 -20 -243 -63 -476 -231 -594 -426
l-21 -35 0 808 0 807 -245 0 -245 0 0 -2125z"/>
<path d="M14770 4128 c0 -1936 -1 -1896 50 -2063 56 -181 150 -295 302 -369
51 -25 134 -57 183 -72 84 -25 104 -27 280 -28 105 -1 207 3 228 7 l37 8 0
231 0 230 -22 -6 c-60 -17 -181 -28 -248 -23 -207 16 -292 100 -320 319 -6 54
-10 679 -10 1825 l0 1743 -240 0 -240 0 0 -1802z"/>
<path d="M22260 5148 l-1 -783 -21 30 c-38 54 -202 210 -259 248 -81 52 -201
110 -294 140 -305 100 -688 97 -1001 -8 -426 -143 -809 -530 -959 -970 -99
-290 -119 -655 -55 -968 60 -291 193 -546 400 -769 239 -258 533 -412 882
-464 153 -22 440 -15 580 15 302 65 532 204 700 421 l27 35 1 -197 0 -198 240
0 240 0 0 2125 0 2125 -240 0 -240 0 0 -782z m-824 -772 c293 -64 546 -249
711 -522 106 -174 151 -338 160 -574 13 -359 -74 -621 -287 -869 -129 -150
-340 -283 -525 -331 -303 -78 -622 -33 -861 122 -173 112 -295 250 -389 443
-88 178 -125 350 -125 575 0 275 67 514 201 711 51 77 172 204 252 266 117 91
279 161 435 189 97 17 330 12 428 -10z"/>
<path d="M12663 4850 c-313 -33 -560 -142 -784 -348 -52 -48 -125 -132 -193
-224 l-27 -37 163 -135 c90 -75 168 -136 173 -136 6 0 39 34 74 75 126 150
324 278 506 327 111 30 364 32 475 4 174 -43 303 -133 362 -254 32 -64 33 -72
33 -182 0 -99 -3 -122 -23 -165 -73 -158 -195 -195 -857 -260 -509 -50 -858
-199 -1030 -440 -120 -167 -175 -378 -161 -610 20 -342 202 -607 520 -756 177
-83 363 -119 613 -119 421 0 736 99 957 301 30 27 56 49 59 49 3 0 8 -15 11
-34 11 -57 64 -152 108 -191 72 -65 137 -89 260 -93 125 -5 221 9 296 43 l52
24 0 174 0 174 -94 5 c-115 6 -161 26 -190 83 -21 39 -21 55 -26 985 -6 932
-6 946 -27 1022 -29 103 -63 186 -104 254 -140 231 -403 395 -719 448 -120 20
-320 27 -427 16z m787 -1928 c0 -333 -4 -363 -67 -492 -27 -56 -56 -94 -112
-150 -135 -134 -324 -207 -597 -232 -292 -25 -536 33 -678 163 -39 36 -67 74
-93 127 -38 75 -38 77 -38 196 0 151 20 208 102 297 120 130 332 197 738 234
341 32 577 76 681 128 27 13 52 25 57 26 4 0 7 -133 7 -297z"/>
<path d="M17396 4849 c-340 -30 -664 -171 -924 -401 -270 -240 -443 -537 -512
-883 -40 -198 -37 -509 6 -720 71 -344 275 -671 564 -904 208 -167 427 -269
695 -324 95 -19 142 -22 345 -22 205 0 249 3 347 23 150 30 293 81 433 153
149 77 269 167 400 299 264 265 409 573 451 962 14 125 6 380 -15 498 -57 321
-201 600 -427 830 -288 294 -627 454 -1034 489 -135 12 -187 12 -329 0z m364
-463 c298 -45 556 -201 739 -446 153 -204 222 -429 222 -720 0 -289 -70 -517
-222 -721 -65 -88 -197 -213 -288 -273 -367 -244 -911 -244 -1282 -1 -105 69
-273 241 -337 344 -134 219 -195 490 -172 761 27 300 119 513 309 713 267 281
633 403 1031 343z"/>
<path d="M24719 4850 c-213 -20 -390 -70 -574 -161 -163 -80 -286 -170 -436
-319 -241 -241 -381 -506 -440 -836 -30 -168 -30 -459 -1 -625 40 -223 121
-426 243 -610 77 -116 298 -340 416 -422 282 -197 581 -287 958 -287 389 0
696 96 984 307 109 80 306 282 378 388 118 175 198 364 245 578 20 91 22 130
22 357 0 226 -2 267 -22 356 -33 153 -66 246 -137 389 -226 456 -681 790
-1180 869 -125 19 -343 27 -456 16z m418 -474 c226 -49 411 -152 576 -319 160
-162 257 -349 303 -582 25 -124 25 -386 1 -509 -93 -465 -438 -813 -893 -902
-110 -22 -348 -24 -454 -5 -417 75 -750 362 -880 760 -79 243 -79 565 2 811
51 158 145 307 273 435 181 181 385 285 640 324 87 14 347 6 432 -13z"/>
<path d="M28374 4850 c-410 -40 -740 -201 -1035 -507 -222 -230 -356 -496
-415 -818 -25 -141 -25 -469 0 -610 30 -163 72 -291 146 -440 83 -167 169
-285 305 -420 227 -225 494 -368 810 -435 127 -27 435 -38 580 -21 354 42 631
163 883 388 39 36 72 69 72 74 0 6 -66 86 -146 179 l-147 169 -66 -60 c-192
-177 -417 -273 -703 -301 -357 -35 -689 81 -934 326 -228 228 -334 496 -334
845 0 344 97 600 312 827 223 234 508 354 843 354 317 0 608 -110 817 -308 31
-30 61 -52 66 -51 12 5 292 328 292 338 0 4 -24 29 -52 57 -278 266 -624 403
-1058 418 -80 2 -186 1 -236 -4z"/>
</g>
</svg>
