<?xml version="1.0" standalone="no"?>
<!DOCTYPE svg PUBLIC "-//W3C//DTD SVG 20010904//EN"
 "http://www.w3.org/TR/2001/REC-SVG-20010904/DTD/svg10.dtd">
<svg version="1.0" xmlns="http://www.w3.org/2000/svg"
 width="1920.000000pt" height="1872.000000pt" viewBox="0 0 1920.000000 1872.000000"
 preserveAspectRatio="xMidYMid meet">

<g transform="translate(0.000000,1872.000000) scale(0.100000,-0.100000)"
fill="#000000" stroke="none">
<path d="M9085 18714 c-254 -19 -350 -28 -473 -45 -961 -133 -1875 -547 -2627
-1189 -159 -136 -455 -434 -585 -590 -597 -716 -982 -1545 -1135 -2445 -56
-332 -69 -497 -69 -870 0 -243 5 -372 18 -490 69 -644 226 -1196 496 -1750
424 -867 1086 -1604 1894 -2107 712 -443 1456 -691 2306 -769 175 -16 667 -16
840 0 848 78 1606 331 2302 767 846 530 1537 1314 1946 2210 467 1021 590
2157 351 3248 -249 1134 -890 2166 -1804 2902 -778 627 -1717 1010 -2717 1109
-145 15 -636 27 -743 19z"/>
<path d="M12865 8819 c-898 -672 -1965 -1070 -3104 -1159 -172 -13 -689 -13
-857 0 -707 55 -1349 216 -1989 499 -350 155 -784 407 -1088 633 l-87 65 -173
-32 c-2562 -482 -4639 -2400 -5326 -4919 -146 -536 -223 -1070 -237 -1656 -10
-399 18 -773 81 -1070 104 -491 324 -833 648 -1005 357 -190 812 -221 1553
-106 281 44 558 100 1314 267 1268 280 1910 382 2730 436 283 19 6244 19 6535
0 819 -52 1437 -151 2740 -437 116 -26 271 -60 345 -76 741 -163 1127 -227
1518 -251 832 -52 1317 215 1556 856 189 505 228 1373 100 2246 -207 1420
-859 2735 -1869 3769 -545 557 -1144 996 -1825 1336 -715 358 -1403 568 -2209
675 -234 31 -216 34 -356 -71z"/>
</g>
</svg>
