<?xml version="1.0" standalone="no"?>
<!DOCTYPE svg PUBLIC "-//W3C//DTD SVG 20010904//EN"
 "http://www.w3.org/TR/2001/REC-SVG-20010904/DTD/svg10.dtd">
<svg version="1.0" xmlns="http://www.w3.org/2000/svg"
 width="2911.000000pt" height="2549.000000pt" viewBox="0 0 2911.000000 2549.000000"
 preserveAspectRatio="xMidYMid meet">

<g transform="translate(0.000000,2549.000000) scale(0.100000,-0.100000)"
fill="#000000" stroke="none">
<path d="M7822 25469 c-58 -11 -58 -12 -66 -66 -8 -60 -43 -137 -101 -220 -49
-70 -51 -73 -32 -73 6 0 35 -11 64 -24 62 -29 132 -91 159 -141 10 -19 22 -35
25 -35 12 0 108 161 159 265 47 99 108 270 99 279 -2 3 -34 10 -69 15 -75 12
-176 13 -238 0z"/>
<path d="M26376 24888 c-31 -226 -32 -576 -1 -778 15 -97 58 -311 71 -353 14
-45 123 -56 254 -26 55 12 100 26 100 30 0 4 -11 54 -25 111 -14 56 -32 149
-40 205 -19 126 -35 434 -29 563 2 52 6 132 8 176 l4 82 -82 -5 c-63 -4 -100
-1 -163 16 -46 11 -84 21 -87 21 -2 0 -6 -19 -10 -42z"/>
<path d="M16051 24225 c-37 -364 -20 -627 61 -983 l21 -92 46 -14 c68 -20 174
-10 297 29 8 2 5 30 -11 92 -59 226 -79 443 -73 790 l4 262 -80 -6 c-65 -4
-97 -1 -159 16 -42 11 -81 21 -86 21 -4 0 -13 -52 -20 -115z"/>
<path d="M851 22158 l-134 -142 7 -125 c12 -210 44 -354 95 -432 31 -47 187
-218 234 -258 l29 -24 101 51 c56 29 183 100 282 158 171 102 283 153 333 154
57 0 17 -123 -172 -527 -36 -78 -66 -152 -66 -165 0 -23 100 -165 164 -233 29
-30 40 -35 78 -35 29 0 54 7 69 19 131 102 357 218 524 270 54 17 103 31 107
31 41 0 -55 -272 -201 -569 -28 -57 -51 -114 -51 -125 0 -37 56 -120 120 -180
106 -98 94 -96 202 -31 187 113 508 254 720 315 l77 23 -74 86 c-123 143 -139
160 -166 166 -21 5 -78 -18 -264 -109 -131 -64 -239 -116 -240 -116 -1 0 22
73 52 162 91 269 87 306 -55 434 -48 43 -100 92 -117 108 -16 17 -45 35 -64
42 -76 26 -261 -14 -488 -105 -29 -11 -53 -16 -53 -11 0 6 25 60 55 120 99
197 131 339 88 387 -41 46 -282 253 -304 262 -76 28 -247 -21 -423 -122 -122
-71 -245 -131 -252 -124 -2 2 -17 149 -34 328 -17 178 -34 355 -38 392 l-7 68
-134 -143z"/>
<path d="M12413 21505 c-297 -52 -663 -288 -823 -531 -42 -64 -57 -101 -74
-184 -8 -36 -61 -99 -311 -365 -67 -71 -134 -143 -149 -160 -15 -16 -49 -52
-75 -80 -103 -109 -361 -409 -490 -570 -524 -653 -848 -1245 -982 -1790 -63
-261 -85 -550 -56 -765 31 -230 92 -446 170 -600 33 -66 158 -263 163 -257 1
1 39 126 82 277 l80 275 6 150 c3 83 8 159 10 170 2 11 7 52 10 90 4 39 16
126 27 195 11 69 22 141 25 160 12 77 67 313 105 450 279 990 845 1778 1611
2240 102 62 104 62 188 66 350 13 661 114 827 269 123 113 182 243 190 415 9
167 -32 325 -106 419 -88 111 -246 157 -428 126z"/>
<path d="M17378 21509 c-59 -9 -142 -47 -186 -84 -93 -78 -143 -210 -150 -395
-7 -199 36 -324 155 -451 168 -177 473 -287 846 -303 94 -4 101 -6 170 -47
469 -276 892 -701 1191 -1198 148 -245 308 -603 401 -891 81 -252 163 -618
190 -845 4 -27 8 -57 10 -65 2 -8 7 -51 11 -95 3 -44 8 -88 9 -97 2 -9 7 -81
11 -160 7 -139 9 -150 81 -398 41 -140 78 -261 82 -267 4 -8 23 14 51 60 24
39 50 77 56 84 14 14 96 181 123 250 26 68 77 270 97 388 23 135 23 439 0 590
-107 701 -535 1481 -1281 2334 -62 70 -311 347 -350 387 -74 77 -278 297 -311
334 -21 24 -49 56 -61 69 -28 31 -47 72 -67 143 -61 210 -396 494 -722 611
-119 43 -260 61 -356 46z"/>
<path d="M14720 19405 c-324 -38 -598 -83 -867 -140 -191 -41 -432 -101 -440
-109 -8 -8 119 -254 188 -364 98 -156 168 -248 268 -354 164 -173 325 -277
516 -334 l90 -27 520 0 520 0 89 27 c305 92 562 323 803 722 72 118 176 324
169 332 -17 17 -547 132 -811 176 -208 35 -339 53 -510 71 -33 4 -71 9 -85 11
-82 15 -270 10 -450 -11z"/>
<path d="M25795 19415 c-88 -26 -103 -47 -108 -158 l-2 -48 50 -18 c87 -30
257 -142 499 -331 71 -55 135 -100 142 -100 31 0 30 118 0 237 -8 32 -17 69
-19 83 -18 98 -20 101 -134 172 -250 155 -340 190 -428 163z"/>
<path d="M24879 18783 c-29 -41 -69 -145 -69 -177 0 -6 19 -17 43 -23 56 -15
210 -119 437 -293 181 -139 243 -180 256 -167 3 3 -7 63 -24 134 -38 161 -53
226 -56 248 -3 17 -194 175 -299 245 -72 49 -155 80 -212 80 -41 0 -46 -3 -76
-47z"/>
<path d="M23882 17669 l123 -184 55 -12 c204 -46 461 -59 564 -29 l59 17 -6
122 c-3 67 -8 129 -12 137 -4 12 -42 20 -163 33 -188 22 -675 85 -715 93 -27
6 -20 -7 95 -177z"/>
<path d="M12358 17499 c-497 -43 -993 -300 -1291 -669 -454 -562 -564 -1349
-327 -2327 127 -523 334 -961 646 -1363 176 -228 484 -514 744 -693 577 -396
1315 -664 2140 -778 290 -40 437 -48 785 -44 349 3 503 16 832 70 1198 196
2165 721 2756 1496 230 301 440 722 550 1104 322 1114 202 2022 -346 2621
-117 128 -323 283 -493 371 -460 239 -1034 287 -1372 114 -131 -67 -622 -206
-903 -255 -333 -59 -676 -74 -926 -40 -157 22 -159 22 -315 1 -147 -21 -420
-24 -598 -7 -385 35 -975 182 -1262 314 -163 74 -388 106 -620 85z m380 -1749
c598 -63 1066 -433 1246 -985 54 -166 88 -405 67 -474 -35 -117 -204 -146
-286 -50 -29 35 -31 42 -46 173 -42 377 -240 693 -547 876 -144 85 -315 130
-495 130 -254 0 -489 -78 -683 -225 -244 -187 -389 -456 -425 -792 -12 -116
-24 -150 -64 -182 -92 -71 -232 -37 -265 65 -23 69 16 324 76 496 119 342 358
637 649 803 242 137 503 193 773 165z m4250 0 c524 -55 939 -336 1166 -789 89
-176 147 -400 149 -578 2 -110 -6 -132 -67 -177 -37 -28 -128 -28 -175 -1 -60
35 -72 62 -87 191 -47 387 -221 679 -518 872 -148 96 -293 141 -480 149 -157
7 -263 -7 -406 -53 -428 -140 -705 -496 -750 -964 -5 -55 -16 -113 -25 -129
-47 -92 -182 -118 -260 -49 -49 43 -58 86 -45 211 40 368 185 673 440 927 296
297 662 432 1058 390z"/>
<path d="M4975 17074 c-397 -272 -753 -415 -1295 -521 -129 -25 -241 -47 -248
-49 -11 -3 -9 -12 8 -37 48 -72 100 -196 116 -277 12 -62 15 -113 11 -191 -5
-96 -4 -106 11 -103 9 2 75 13 145 24 417 67 802 178 1277 369 122 49 224 92
227 95 3 3 1 73 -6 156 -11 154 -37 296 -72 397 -25 72 -80 193 -88 192 -3 0
-42 -25 -86 -55z"/>
<path d="M9544 16056 c-145 -47 -311 -152 -434 -276 -256 -256 -371 -603 -325
-975 20 -166 116 -397 220 -529 80 -101 221 -229 324 -291 9 -5 32 -20 52 -32
20 -13 74 -37 120 -54 132 -48 122 -48 115 -3 -63 400 -80 1050 -42 1574 12
159 49 504 62 578 7 39 4 39 -92 8z"/>
<path d="M20354 16028 c12 -82 45 -394 56 -532 42 -516 27 -1171 -36 -1580
l-6 -38 31 7 c65 14 255 119 333 183 40 33 168 161 188 188 98 128 173 282
209 426 30 119 35 165 35 303 -1 231 -69 445 -207 650 -84 125 -271 286 -417
360 -51 26 -173 75 -186 75 -4 0 -3 -19 0 -42z"/>
<path d="M3240 13683 c-214 -257 -363 -530 -480 -883 -64 -193 -133 -451 -123
-459 144 -101 245 -154 368 -194 110 -35 194 -52 204 -41 4 5 20 83 35 174 79
468 199 776 417 1071 33 45 59 82 57 83 -2 1 -32 17 -68 35 -146 76 -252 167
-302 261 l-27 50 -81 -97z"/>
<path d="M9125 12512 c-357 -546 -766 -1041 -1090 -1319 -106 -91 -275 -213
-296 -213 -17 0 -8 -12 63 -79 l67 -63 78 42 c208 114 385 252 598 465 267
267 501 567 769 988 76 120 86 140 74 155 -32 43 -153 162 -162 162 -6 0 -51
-62 -101 -138z"/>
<path d="M19373 11533 c-109 -129 -341 -359 -470 -465 -134 -111 -311 -241
-440 -323 -1 0 53 -57 120 -125 298 -303 479 -601 599 -990 31 -103 73 -299
83 -395 4 -33 9 -71 12 -85 9 -46 11 -493 2 -615 -4 -66 -15 -203 -25 -303
-14 -156 -14 -186 -3 -197 27 -25 182 -46 336 -46 489 0 1021 191 1413 508
104 84 254 241 329 346 228 317 332 726 291 1138 -37 366 -155 685 -348 944
-73 99 -250 264 -361 338 -244 164 -558 283 -876 333 -27 4 -52 9 -55 9 -3 1
-36 5 -75 9 -38 5 -79 10 -90 12 -11 2 -94 7 -185 10 l-165 6 -92 -109z"/>
<path d="M10859 10696 c-2 -2 -33 -7 -69 -10 -311 -32 -666 -184 -925 -396
-85 -70 -233 -222 -298 -307 -142 -185 -270 -451 -312 -644 -47 -220 -49 -241
-49 -469 0 -205 2 -236 27 -351 105 -495 382 -901 800 -1174 230 -150 536
-256 808 -282 67 -6 71 -5 66 13 -16 53 -60 304 -55 310 4 3 73 -19 155 -49
513 -190 1217 -350 1896 -430 108 -13 199 -26 201 -28 2 -2 9 -56 16 -119 47
-477 183 -865 406 -1159 258 -342 640 -555 1104 -617 144 -19 589 -18 735 1
380 51 708 207 955 455 133 133 222 258 310 435 117 234 201 533 231 820 19
190 19 190 59 193 104 8 462 57 645 88 349 59 749 149 1025 230 199 59 520
174 546 195 7 5 15 35 19 67 3 31 9 67 12 79 4 20 0 19 -99 -18 -635 -242
-1426 -401 -2193 -443 -55 -3 -100 -6 -101 -6 -1 0 -4 -66 -8 -147 -17 -383
-85 -668 -225 -948 -133 -265 -303 -462 -526 -609 -511 -338 -1276 -381 -1852
-106 -576 275 -908 856 -940 1647 l-6 161 -30 5 c-17 2 -62 5 -101 6 -381 9
-995 102 -1461 221 -344 88 -766 227 -802 263 -16 17 -79 498 -98 752 -4 44
-9 94 -11 110 -10 57 -13 630 -4 705 66 588 274 1046 652 1438 36 37 57 67 52
72 -21 21 -241 47 -395 48 -86 1 -158 -1 -160 -2z"/>
<path d="M26499 9739 l-134 -141 3 -102 c7 -234 41 -392 103 -484 47 -71 246
-282 265 -282 20 0 193 93 409 219 173 101 283 151 336 151 45 0 9 -128 -107
-380 -126 -274 -144 -315 -144 -336 0 -22 135 -208 184 -253 48 -45 87 -36
217 51 136 92 304 174 452 223 138 45 140 45 131 -2 -17 -99 -114 -343 -220
-555 -54 -108 -57 -146 -13 -211 34 -52 175 -187 195 -187 7 0 48 22 92 49
179 112 440 229 689 310 l142 47 -106 123 c-58 67 -116 127 -129 133 -28 13
-56 2 -339 -136 -104 -51 -191 -92 -192 -91 -1 0 23 77 54 170 66 203 75 265
45 327 -21 42 -226 238 -281 268 -36 19 -177 7 -281 -24 -47 -13 -132 -43
-188 -65 -57 -22 -102 -35 -99 -28 3 7 35 76 71 153 77 166 101 247 92 318 -3
27 -10 52 -15 55 -5 3 -42 36 -82 72 -244 219 -221 204 -319 200 -88 -4 -189
-39 -310 -108 -129 -74 -293 -154 -300 -146 -7 8 -32 258 -64 631 -8 90 -17
166 -19 168 -2 3 -65 -59 -138 -137z"/>
<path d="M14848 8445 c-1 -1 -29 -6 -60 -9 -65 -6 -203 -38 -269 -62 -24 -8
-52 -17 -62 -19 -60 -13 -320 -161 -409 -233 -98 -80 -199 -183 -191 -195 3
-6 1 -7 -4 -4 -6 4 -18 -4 -26 -17 -9 -13 -22 -29 -29 -37 -25 -26 -86 -114
-114 -164 -15 -27 -35 -65 -45 -82 -10 -18 -15 -33 -11 -33 4 0 2 -4 -4 -8
-18 -12 -81 -181 -108 -287 -37 -145 -49 -270 -43 -425 9 -226 54 -404 157
-615 159 -328 434 -588 774 -730 303 -126 645 -153 958 -74 545 137 971 561
1108 1102 82 326 54 681 -77 980 -50 113 -153 285 -212 351 -133 150 -249 253
-375 333 -100 64 -346 175 -346 156 0 -3 -6 -1 -13 6 -20 16 -156 47 -252 58
-57 6 -341 13 -347 8z"/>
<path d="M21850 6593 c-678 -37 -1178 -137 -1594 -316 -129 -57 -314 -160
-322 -181 -4 -10 32 -164 41 -174 1 -1 53 22 116 52 404 193 1117 329 1957
372 104 6 132 10 132 21 0 8 -14 64 -32 124 l-31 110 -111 -3 c-61 -1 -131 -4
-156 -5z"/>
<path d="M1290 5421 c-42 -13 -94 -42 -122 -68 l-27 -25 24 -37 c32 -48 61
-140 134 -415 34 -126 66 -235 72 -243 16 -19 27 -16 35 10 3 12 35 83 71 157
l64 135 -40 160 c-44 174 -85 270 -132 309 -32 27 -39 29 -79 17z"/>
<path d="M2150 5372 c-15 -5 -90 -82 -90 -93 0 -4 11 -26 24 -50 37 -66 98
-253 147 -446 30 -119 48 -173 57 -173 26 0 73 67 129 185 l57 118 -32 92
c-70 206 -128 316 -183 346 -25 13 -92 26 -109 21z"/>
<path d="M36 5340 c-3 -19 -10 -102 -15 -184 l-11 -150 27 -35 c48 -63 207
-217 271 -265 35 -25 82 -51 104 -58 38 -11 41 -10 66 18 33 35 77 100 92 134
10 24 -3 38 -259 300 l-269 275 -6 -35z"/>
</g>
</svg>
